<svg xmlns="http://www.w3.org/2000/svg" viewBox="0 0 100.71 112.82"><defs><style>.cls-1{fill:#86c3d0;}.cls-2{fill:#fff;}.cls-3{font-size:12px;fill:#1d1d1b;font-family:MyriadPro-Regular, Myriad Pro;}.cls-4{letter-spacing:0.03em;}</style></defs><g id="API"><path class="cls-1" d="M50.35,13.37a43,43,0,1,0,43.05,43A43,43,0,0,0,50.35,13.37Z"/><path class="cls-2" d="M41.79,61.67a13.82,13.82,0,1,1,12.57-8,.87.87,0,0,1-1.15.42.86.86,0,0,1-.42-1.14,12.12,12.12,0,1,0-2.44,3.49.86.86,0,1,1,1.22,1.22A13.8,13.8,0,0,1,41.79,61.67Z"/><path class="cls-2" d="M68.31,78.8a4.4,4.4,0,0,1-3.14-1.3L55.6,67.93a.86.86,0,1,1,1.22-1.22l9.57,9.57a2.77,2.77,0,0,0,3.84,0,2.72,2.72,0,0,0,0-3.83l-9.57-9.58a2.79,2.79,0,0,0-3.84,0,.88.88,0,0,1-1.22,0l-5.25-5.24a.88.88,0,0,1,0-1.22.86.86,0,0,1,1.22,0l4.7,4.7a4.43,4.43,0,0,1,5.6.55l9.58,9.57a4.44,4.44,0,0,1-3.14,7.57Z"/><path class="cls-2" d="M46.36,53.27a.85.85,0,0,1-.61-.25l-9.14-9.13a.88.88,0,0,1,0-1.22.86.86,0,0,1,1.22,0L47,51.8A.88.88,0,0,1,47,53,.85.85,0,0,1,46.36,53.27Z"/><path class="cls-2" d="M37.22,53.27a.85.85,0,0,1-.61-.25.88.88,0,0,1,0-1.22l9.14-9.13a.86.86,0,0,1,1.22,0,.88.88,0,0,1,0,1.22L37.83,53A.85.85,0,0,1,37.22,53.27Z"/></g><g id="HOSTING"><text class="cls-3" transform="translate(17.93 -4.98)">J<tspan class="cls-4" x="4.44" y="0">W</tspan><tspan x="14.99" y="0">T</tspan></text></g></svg>